<mxfile host="65bd71144e">
    <diagram id="WjwVzdsnjCWZxU73H1zn" name="Page-1">
        <mxGraphModel dx="902" dy="467" grid="1" gridSize="10" guides="1" tooltips="1" connect="1" arrows="1" fold="1" page="1" pageScale="1" pageWidth="850" pageHeight="1100" background="#ffffff" math="0" shadow="0">
            <root>
                <mxCell id="0"/>
                <mxCell id="1" parent="0"/>
                <mxCell id="14" style="edgeStyle=none;html=1;fontColor=#000000;strokeColor=#000000;" parent="1" edge="1">
                    <mxGeometry relative="1" as="geometry">
                        <mxPoint x="170" y="260" as="sourcePoint"/>
                        <mxPoint x="100" y="320" as="targetPoint"/>
                    </mxGeometry>
                </mxCell>
                <mxCell id="2" value="&lt;font color=&quot;#000000&quot;&gt;Persona&lt;/font&gt;" style="shape=umlActor;verticalLabelPosition=bottom;verticalAlign=top;html=1;fillColor=#fad7ac;strokeColor=#b46504;" parent="1" vertex="1">
                    <mxGeometry x="60" y="320" width="30" height="60" as="geometry"/>
                </mxCell>
                <mxCell id="5" value="&lt;font color=&quot;#000000&quot;&gt;Administrador&lt;/font&gt;" style="shape=umlActor;verticalLabelPosition=bottom;verticalAlign=top;html=1;fillColor=#fad7ac;strokeColor=#b46504;" parent="1" vertex="1">
                    <mxGeometry x="180" y="230" width="30" height="60" as="geometry"/>
                </mxCell>
                <mxCell id="6" value="&lt;font color=&quot;#000000&quot;&gt;Usuario&lt;/font&gt;" style="shape=umlActor;verticalLabelPosition=bottom;verticalAlign=top;html=1;fillColor=#fad7ac;strokeColor=#b46504;" parent="1" vertex="1">
                    <mxGeometry x="170" y="400" width="30" height="60" as="geometry"/>
                </mxCell>
                <mxCell id="11" value="" style="edgeStyle=none;html=1;fontColor=#000000;" parent="1" edge="1">
                    <mxGeometry relative="1" as="geometry">
                        <mxPoint x="405" y="330" as="sourcePoint"/>
                        <mxPoint x="405" y="350" as="targetPoint"/>
                    </mxGeometry>
                </mxCell>
                <mxCell id="15" style="edgeStyle=none;html=1;fontColor=#000000;strokeColor=#000000;" parent="1" edge="1">
                    <mxGeometry relative="1" as="geometry">
                        <mxPoint x="160" y="410" as="sourcePoint"/>
                        <mxPoint x="110" y="360" as="targetPoint"/>
                    </mxGeometry>
                </mxCell>
                <mxCell id="17" value="&lt;font color=&quot;#000000&quot;&gt;Base Datos&lt;br&gt;&lt;/font&gt;" style="shape=umlActor;verticalLabelPosition=bottom;verticalAlign=top;html=1;fillColor=#fad7ac;strokeColor=#b46504;" parent="1" vertex="1">
                    <mxGeometry x="770" y="320" width="30" height="60" as="geometry"/>
                </mxCell>
                <mxCell id="20" style="edgeStyle=none;html=1;fontColor=#000000;strokeColor=#000000;entryX=0;entryY=0.5;entryDx=0;entryDy=0;" parent="1" target="22" edge="1">
                    <mxGeometry relative="1" as="geometry">
                        <mxPoint x="220" y="251.43" as="sourcePoint"/>
                        <mxPoint x="340" y="230" as="targetPoint"/>
                    </mxGeometry>
                </mxCell>
                <mxCell id="21" value="&lt;font color=&quot;#000000&quot;&gt;Solicitar prestamo o devolucion de un libro y ingresar sus datos&amp;nbsp;&lt;/font&gt;" style="ellipse;whiteSpace=wrap;html=1;fillColor=#96785A;gradientColor=#96785A;strokeColor=#82b366;" parent="1" vertex="1">
                    <mxGeometry x="322.5" y="350" width="210" height="90" as="geometry"/>
                </mxCell>
                <mxCell id="22" value="&lt;span style=&quot;color: rgb(0, 0, 0);&quot;&gt;Gestionar ingreso y prestamo&lt;/span&gt;&lt;br style=&quot;color: rgb(0, 0, 0);&quot;&gt;&lt;span style=&quot;color: rgb(0, 0, 0);&quot;&gt;de libros hacia los usuarios&lt;/span&gt;" style="ellipse;whiteSpace=wrap;html=1;fillColor=#96785A;strokeColor=#b46504;" parent="1" vertex="1">
                    <mxGeometry x="320" y="130" width="190" height="100" as="geometry"/>
                </mxCell>
                <mxCell id="24" value="&lt;font color=&quot;#000000&quot;&gt;Registrar&amp;nbsp; los detalles de entrada y salida de libros&lt;/font&gt;" style="ellipse;whiteSpace=wrap;html=1;fillColor=#96785A;gradientColor=#96785A;strokeColor=#82b366;" parent="1" vertex="1">
                    <mxGeometry x="335" y="240" width="185" height="100" as="geometry"/>
                </mxCell>
                <mxCell id="25" style="edgeStyle=none;html=1;fontColor=#000000;strokeColor=#000000;entryX=0;entryY=0.5;entryDx=0;entryDy=0;" parent="1" target="24" edge="1">
                    <mxGeometry relative="1" as="geometry">
                        <mxPoint x="220" y="281.43000000000006" as="sourcePoint"/>
                        <mxPoint x="360" y="300" as="targetPoint"/>
                    </mxGeometry>
                </mxCell>
                <mxCell id="26" value="&lt;font color=&quot;#000000&quot;&gt;Consulatar disponibilidad de libros y lista de espera&lt;/font&gt;" style="ellipse;whiteSpace=wrap;html=1;fillColor=#96785A;gradientColor=#96785A;strokeColor=#82b366;" parent="1" vertex="1">
                    <mxGeometry x="330" y="450" width="210" height="90" as="geometry"/>
                </mxCell>
                <mxCell id="28" style="edgeStyle=none;html=1;fontColor=#000000;strokeColor=#000000;entryX=0;entryY=0.5;entryDx=0;entryDy=0;" parent="1" target="21" edge="1">
                    <mxGeometry relative="1" as="geometry">
                        <mxPoint x="230" y="409.99999999999994" as="sourcePoint"/>
                        <mxPoint x="360" y="400" as="targetPoint"/>
                    </mxGeometry>
                </mxCell>
                <mxCell id="29" style="edgeStyle=none;html=1;fontColor=#000000;strokeColor=#000000;entryX=0;entryY=0.5;entryDx=0;entryDy=0;" parent="1" target="26" edge="1">
                    <mxGeometry relative="1" as="geometry">
                        <mxPoint x="230" y="451.42999999999995" as="sourcePoint"/>
                        <mxPoint x="360" y="500" as="targetPoint"/>
                    </mxGeometry>
                </mxCell>
                <mxCell id="30" value="&lt;font color=&quot;#000000&quot;&gt;&amp;nbsp;DCU_SistemaBiblioteca&lt;/font&gt;" style="shape=umlFrame;whiteSpace=wrap;html=1;width=150;height=30;boundedLbl=1;verticalAlign=middle;align=left;spacingLeft=5;fillColor=#fad7ac;strokeColor=#b46504;" parent="1" vertex="1">
                    <mxGeometry x="272.5" y="110" width="310" height="430" as="geometry"/>
                </mxCell>
                <mxCell id="35" style="edgeStyle=none;html=1;fontColor=#000000;strokeColor=#000000;entryX=0.985;entryY=0.656;entryDx=0;entryDy=0;entryPerimeter=0;startArrow=classic;startFill=1;endArrow=none;endFill=0;" parent="1" target="22" edge="1">
                    <mxGeometry relative="1" as="geometry">
                        <mxPoint x="650" y="310" as="sourcePoint"/>
                        <mxPoint x="570.0000000000002" y="200" as="targetPoint"/>
                    </mxGeometry>
                </mxCell>
                <mxCell id="36" style="edgeStyle=none;html=1;fontColor=#000000;strokeColor=#000000;entryX=0.996;entryY=0.58;entryDx=0;entryDy=0;entryPerimeter=0;startArrow=classic;startFill=1;endArrow=none;endFill=0;" parent="1" target="24" edge="1">
                    <mxGeometry relative="1" as="geometry">
                        <mxPoint x="640" y="330" as="sourcePoint"/>
                        <mxPoint x="510" y="290" as="targetPoint"/>
                    </mxGeometry>
                </mxCell>
                <mxCell id="37" style="edgeStyle=none;html=1;fontColor=#000000;strokeColor=#000000;startArrow=classic;startFill=1;endArrow=none;endFill=0;" parent="1" edge="1">
                    <mxGeometry relative="1" as="geometry">
                        <mxPoint x="640" y="360" as="sourcePoint"/>
                        <mxPoint x="530" y="390" as="targetPoint"/>
                    </mxGeometry>
                </mxCell>
                <mxCell id="38" style="edgeStyle=none;html=1;fontColor=#000000;strokeColor=#000000;entryX=1;entryY=0.5;entryDx=0;entryDy=0;startArrow=classic;startFill=1;endArrow=none;endFill=0;" parent="1" target="26" edge="1">
                    <mxGeometry relative="1" as="geometry">
                        <mxPoint x="650" y="390" as="sourcePoint"/>
                        <mxPoint x="550" y="520" as="targetPoint"/>
                    </mxGeometry>
                </mxCell>
                <mxCell id="41" value="&lt;font color=&quot;#000000&quot;&gt;App&lt;br&gt;&lt;/font&gt;" style="shape=umlActor;verticalLabelPosition=bottom;verticalAlign=top;html=1;fillColor=#fad7ac;strokeColor=#b46504;" parent="1" vertex="1">
                    <mxGeometry x="650" y="315" width="30" height="60" as="geometry"/>
                </mxCell>
                <mxCell id="42" style="edgeStyle=none;html=1;fontColor=#000000;strokeColor=#000000;" parent="1" edge="1">
                    <mxGeometry relative="1" as="geometry">
                        <mxPoint x="760" y="340" as="sourcePoint"/>
                        <mxPoint x="690" y="340" as="targetPoint"/>
                    </mxGeometry>
                </mxCell>
            </root>
        </mxGraphModel>
    </diagram>
</mxfile>